<svg width="32" height="32" viewBox="0 0 32 32" xmlns="http://www.w3.org/2000/svg">
  <defs>
    <linearGradient id="primaryGradient" x1="0%" y1="0%" x2="100%" y2="100%">
      <stop offset="0%" style="stop-color:#667eea;stop-opacity:1" />
      <stop offset="100%" style="stop-color:#4ca8ff;stop-opacity:1" />
    </linearGradient>
    
    <linearGradient id="accentGradient" x1="0%" y1="0%" x2="100%" y2="0%">
      <stop offset="0%" style="stop-color:#4facfe;stop-opacity:1" />
      <stop offset="100%" style="stop-color:#00f2fe;stop-opacity:1" />
    </linearGradient>
  </defs>
  
  <!-- Background -->
  <rect width="32" height="32" rx="6" fill="rgba(11, 15, 28, 0.95)"/>
  
  <!-- Professional "C" letterform -->
  <g transform="translate(4, 4)">
    <!-- Main C shape - bold and clear -->
    <path d="M 18 6 
             A 10 10 0 0 1 18 18
             L 15.5 16
             A 7.5 7.5 0 0 0 15.5 8
             Z" 
          fill="url(#primaryGradient)" 
          opacity="0.95"/>
    
    <!-- Inner C for depth -->
    <path d="M 17 8
             A 6 6 0 0 1 17 16
             L 15 14.5
             A 4.5 4.5 0 0 0 15 9.5
             Z" 
          fill="url(#accentGradient)" 
          opacity="0.2"/>
    
    <!-- Minimal structural elements -->
    <g opacity="0.5">
      <line x1="19" y1="10" x2="21" y2="10" stroke="url(#accentGradient)" stroke-width="0.8"/>
      <line x1="19" y1="14" x2="21" y2="14" stroke="url(#accentGradient)" stroke-width="0.8"/>
      <circle cx="22" cy="12" r="1" fill="url(#primaryGradient)" opacity="0.8"/>
    </g>
  </g>
</svg>